<svg width="20" height="20" viewBox="0 0 20 20" fill="none" xmlns="http://www.w3.org/2000/svg">
<g clip-path="url(#clip0_1256_7671)">
<path d="M2.22222 20C1.61111 20 1.08796 19.7824 0.652778 19.3472C0.217593 18.912 0 18.3889 0 17.7778V2.22222C0 1.61111 0.217593 1.08796 0.652778 0.652778C1.08796 0.217593 1.61111 0 2.22222 0H8.88889C9.2037 0 9.46759 0.106481 9.68056 0.319444C9.89352 0.532407 10 0.796296 10 1.11111C10 1.42593 9.89352 1.68981 9.68056 1.90278C9.46759 2.11574 9.2037 2.22222 8.88889 2.22222H2.22222V17.7778H17.7778V11.1111C17.7778 10.7963 17.8843 10.5324 18.0972 10.3194C18.3102 10.1065 18.5741 10 18.8889 10C19.2037 10 19.4676 10.1065 19.6806 10.3194C19.8935 10.5324 20 10.7963 20 11.1111V17.7778C20 18.3889 19.7824 18.912 19.3472 19.3472C18.912 19.7824 18.3889 20 17.7778 20H2.22222ZM17.7778 3.77778L8.22222 13.3333C8.01852 13.537 7.75926 13.6389 7.44444 13.6389C7.12963 13.6389 6.87037 13.537 6.66667 13.3333C6.46296 13.1296 6.36111 12.8704 6.36111 12.5556C6.36111 12.2407 6.46296 11.9815 6.66667 11.7778L16.2222 2.22222H13.3333C13.0185 2.22222 12.7546 2.11574 12.5417 1.90278C12.3287 1.68981 12.2222 1.42593 12.2222 1.11111C12.2222 0.796296 12.3287 0.532407 12.5417 0.319444C12.7546 0.106481 13.0185 0 13.3333 0H18.8889C19.2037 0 19.4676 0.106481 19.6806 0.319444C19.8935 0.532407 20 0.796296 20 1.11111V6.66667C20 6.98148 19.8935 7.24537 19.6806 7.45833C19.4676 7.6713 19.2037 7.77778 18.8889 7.77778C18.5741 7.77778 18.3102 7.6713 18.0972 7.45833C17.8843 7.24537 17.7778 6.98148 17.7778 6.66667V3.77778Z" fill="#1F85FF"/>
<path d="M0 10H20V18C20 19.1046 19.1046 20 18 20H2C0.895431 20 0 19.1046 0 18V10Z" fill="#1F85FF"/>
<path d="M17.1843 13.7555C17.0998 13.5999 16.9776 13.4822 16.8176 13.4022C16.6621 13.3177 16.4776 13.2755 16.2643 13.2755C15.8954 13.2755 15.5998 13.3977 15.3776 13.6422C15.1554 13.8822 15.0443 14.2044 15.0443 14.6088C15.0443 15.0399 15.1598 15.3777 15.3909 15.6222C15.6265 15.8622 15.9487 15.9822 16.3576 15.9822C16.6376 15.9822 16.8732 15.9111 17.0643 15.7688C17.2598 15.6266 17.4021 15.4222 17.4909 15.1555H16.0443V14.3155H18.5243V15.3755C18.4398 15.6599 18.2954 15.9244 18.0909 16.1688C17.8909 16.4133 17.6354 16.6111 17.3243 16.7622C17.0132 16.9133 16.6621 16.9888 16.2709 16.9888C15.8087 16.9888 15.3954 16.8888 15.0309 16.6888C14.6709 16.4844 14.3887 16.2022 14.1843 15.8422C13.9843 15.4822 13.8843 15.0711 13.8843 14.6088C13.8843 14.1466 13.9843 13.7355 14.1843 13.3755C14.3887 13.0111 14.6709 12.7288 15.0309 12.5288C15.3909 12.3244 15.8021 12.2222 16.2643 12.2222C16.8243 12.2222 17.2954 12.3577 17.6776 12.6288C18.0643 12.8999 18.3198 13.2755 18.4443 13.7555H17.1843Z" fill="white"/>
<path d="M13.506 12.2756L12.286 16.9556H10.906L10.1593 13.8756L9.386 16.9556H8.006L6.81934 12.2756H8.03934L8.71267 15.6823L9.546 12.2756H10.7993L11.5993 15.6823L12.2793 12.2756H13.506Z" fill="white"/>
<path d="M3.9755 12.2756C4.46883 12.2756 4.89995 12.3734 5.26883 12.569C5.63772 12.7645 5.92217 13.0401 6.12217 13.3956C6.32661 13.7467 6.42883 14.1534 6.42883 14.6156C6.42883 15.0734 6.32661 15.4801 6.12217 15.8356C5.92217 16.1912 5.6355 16.4667 5.26217 16.6623C4.89328 16.8579 4.46439 16.9556 3.9755 16.9556H2.22217V12.2756H3.9755ZM3.90217 15.969C4.33328 15.969 4.66883 15.8512 4.90883 15.6156C5.14883 15.3801 5.26883 15.0467 5.26883 14.6156C5.26883 14.1845 5.14883 13.849 4.90883 13.609C4.66883 13.369 4.33328 13.249 3.90217 13.249H3.36217V15.969H3.90217Z" fill="white"/>
</g>
<defs>
<clipPath id="clip0_1256_7671">
<rect width="20" height="20" fill="white"/>
</clipPath>
</defs>
</svg>
